<svg width="20" height="19" viewBox="0 0 20 19" fill="none" xmlns="http://www.w3.org/2000/svg">
<path d="M1.8282 16.0798C1.2 15.719 0.872956 15.013 0.956421 14.2934C1.27316 11.5625 2.23562 4.68569 4.23766 0.91472C4.60246 0.227596 5.39439 -0.0690391 6.15724 0.0835502L8.02988 0.458128C9.07808 0.667796 9.7092 1.74441 9.3801 2.76146L9.24376 3.18278C9.08636 3.66923 8.63335 3.99877 8.12207 3.99877C7.47096 3.99877 6.94312 4.52661 6.94312 5.17773V10.6304C6.94312 10.9951 7.23877 11.2908 7.60347 11.2908C7.82676 11.2908 8.0332 11.1766 8.1642 10.9958C10.267 8.09328 14.2955 7.06015 16.7595 8.16418C20.1199 9.72238 19.8144 14.4174 16.7595 16.495C14.4469 18.0755 7.7212 19.4644 1.8282 16.0798Z" fill="white"/>
</svg>
