<svg width="14" height="13" viewBox="0 0 14 13" fill="none" xmlns="http://www.w3.org/2000/svg">
<path d="M13.1085 4.51641L9.16384 3.93985L7.40048 0.344537C7.35232 0.2461 7.27308 0.166412 7.17521 0.117975C6.92973 -0.00390047 6.63144 0.097662 6.5087 0.344537L4.74534 3.93985L0.800693 4.51641C0.69194 4.53204 0.592508 4.5836 0.51638 4.66172C0.424346 4.75686 0.373632 4.88485 0.375379 5.01757C0.377127 5.15029 0.431195 5.27689 0.525702 5.36954L3.37971 8.16797L2.70543 12.1195C2.68962 12.2115 2.69974 12.306 2.73463 12.3924C2.76952 12.4789 2.8278 12.5537 2.90285 12.6086C2.9779 12.6634 3.06672 12.696 3.15925 12.7026C3.25177 12.7092 3.34429 12.6897 3.42631 12.6461L6.95459 10.7805L10.4829 12.6461C10.5792 12.6977 10.6911 12.7148 10.7983 12.6961C11.0686 12.6492 11.2504 12.3914 11.2037 12.1195L10.5295 8.16797L13.3835 5.36954C13.4612 5.29297 13.5124 5.19297 13.528 5.0836C13.5699 4.81016 13.3804 4.55704 13.1085 4.51641Z" fill="#FADB14"/>
</svg>
